<?xml version="1.0" encoding="UTF-8" standalone="no"?>
<!-- Created with Inkscape (http://www.inkscape.org/) -->

<svg
   xmlns:dc="http://purl.org/dc/elements/1.1/"
   xmlns:cc="http://creativecommons.org/ns#"
   xmlns:rdf="http://www.w3.org/1999/02/22-rdf-syntax-ns#"
   xmlns:svg="http://www.w3.org/2000/svg"
   xmlns="http://www.w3.org/2000/svg"
   xmlns:xlink="http://www.w3.org/1999/xlink"
   xmlns:sodipodi="http://sodipodi.sourceforge.net/DTD/sodipodi-0.dtd"
   xmlns:inkscape="http://www.inkscape.org/namespaces/inkscape"
   width="500"
   height="500"
   id="svg2"
   version="1.1"
   inkscape:version="0.47 r22583"
   sodipodi:docname="andy.svg">
  <defs
     id="defs4">
    <linearGradient
       id="linearGradient3953">
      <stop
         style="stop-color:#9d9d9d;stop-opacity:1;"
         offset="0"
         id="stop3955" />
      <stop
         style="stop-color:#b6b6b6;stop-opacity:1;"
         offset="1"
         id="stop3957" />
    </linearGradient>
    <linearGradient
       id="linearGradient3939">
      <stop
         style="stop-color:#dfdfdf;stop-opacity:1;"
         offset="0"
         id="stop3941" />
      <stop
         style="stop-color:#c4c4c4;stop-opacity:1;"
         offset="1"
         id="stop3943" />
    </linearGradient>
    <linearGradient
       id="linearGradient3925">
      <stop
         style="stop-color:#7fb587;stop-opacity:1;"
         offset="0"
         id="stop3927" />
      <stop
         style="stop-color:#a6d8ad;stop-opacity:1;"
         offset="1"
         id="stop3929" />
    </linearGradient>
    <inkscape:perspective
       sodipodi:type="inkscape:persp3d"
       inkscape:vp_x="0 : 526.18109 : 1"
       inkscape:vp_y="0 : 1000 : 0"
       inkscape:vp_z="744.09448 : 526.18109 : 1"
       inkscape:persp3d-origin="372.04724 : 350.78739 : 1"
       id="perspective10" />
    <linearGradient
       inkscape:collect="always"
       xlink:href="#linearGradient3925"
       id="linearGradient3931"
       x1="430"
       y1="587.36218"
       x2="500"
       y2="587.36218"
       gradientUnits="userSpaceOnUse" />
    <linearGradient
       inkscape:collect="always"
       xlink:href="#linearGradient3925"
       id="linearGradient3933"
       x1="430"
       y1="1017.3622"
       x2="500"
       y2="1017.3622"
       gradientUnits="userSpaceOnUse" />
    <linearGradient
       inkscape:collect="always"
       xlink:href="#linearGradient3925"
       id="linearGradient3935"
       x1="0"
       y1="1017.3622"
       x2="70.000023"
       y2="1017.3622"
       gradientUnits="userSpaceOnUse" />
    <linearGradient
       inkscape:collect="always"
       xlink:href="#linearGradient3925"
       id="linearGradient3937"
       x1="-9.9999997e-06"
       y1="587.36218"
       x2="69.999992"
       y2="587.36218"
       gradientUnits="userSpaceOnUse" />
    <linearGradient
       inkscape:collect="always"
       xlink:href="#linearGradient3939"
       id="linearGradient3945"
       x1="400"
       y1="1002.3622"
       x2="500"
       y2="1002.3622"
       gradientUnits="userSpaceOnUse" />
    <linearGradient
       inkscape:collect="always"
       xlink:href="#linearGradient3939"
       id="linearGradient3947"
       x1="0"
       y1="1002.3622"
       x2="100"
       y2="1002.3622"
       gradientUnits="userSpaceOnUse" />
    <linearGradient
       inkscape:collect="always"
       xlink:href="#linearGradient3939"
       id="linearGradient3949"
       x1="-9.9999997e-06"
       y1="602.36218"
       x2="100.00001"
       y2="602.36218"
       gradientUnits="userSpaceOnUse" />
    <linearGradient
       inkscape:collect="always"
       xlink:href="#linearGradient3939"
       id="linearGradient3951"
       x1="400"
       y1="602.36218"
       x2="500"
       y2="602.36218"
       gradientUnits="userSpaceOnUse" />
    <linearGradient
       inkscape:collect="always"
       xlink:href="#linearGradient3953"
       id="linearGradient3959"
       x1="0"
       y1="802.36218"
       x2="500"
       y2="802.36218"
       gradientUnits="userSpaceOnUse" />
    <linearGradient
       inkscape:collect="always"
       xlink:href="#linearGradient3953"
       id="linearGradient4005"
       gradientUnits="userSpaceOnUse"
       x1="0"
       y1="802.36218"
       x2="500"
       y2="802.36218" />
    <linearGradient
       inkscape:collect="always"
       xlink:href="#linearGradient3939"
       id="linearGradient4007"
       gradientUnits="userSpaceOnUse"
       x1="0"
       y1="1002.3622"
       x2="100"
       y2="1002.3622" />
    <linearGradient
       inkscape:collect="always"
       xlink:href="#linearGradient3939"
       id="linearGradient4009"
       gradientUnits="userSpaceOnUse"
       x1="400"
       y1="1002.3622"
       x2="500"
       y2="1002.3622" />
    <linearGradient
       inkscape:collect="always"
       xlink:href="#linearGradient3939"
       id="linearGradient4011"
       gradientUnits="userSpaceOnUse"
       x1="-9.9999997e-06"
       y1="602.36218"
       x2="100.00001"
       y2="602.36218" />
    <linearGradient
       inkscape:collect="always"
       xlink:href="#linearGradient3939"
       id="linearGradient4013"
       gradientUnits="userSpaceOnUse"
       x1="400"
       y1="602.36218"
       x2="500"
       y2="602.36218" />
    <linearGradient
       inkscape:collect="always"
       xlink:href="#linearGradient3925"
       id="linearGradient4015"
       gradientUnits="userSpaceOnUse"
       x1="-9.9999997e-06"
       y1="587.36218"
       x2="69.999992"
       y2="587.36218" />
    <linearGradient
       inkscape:collect="always"
       xlink:href="#linearGradient3925"
       id="linearGradient4017"
       gradientUnits="userSpaceOnUse"
       x1="430"
       y1="587.36218"
       x2="500"
       y2="587.36218" />
    <linearGradient
       inkscape:collect="always"
       xlink:href="#linearGradient3925"
       id="linearGradient4019"
       gradientUnits="userSpaceOnUse"
       x1="430"
       y1="1017.3622"
       x2="500"
       y2="1017.3622" />
    <linearGradient
       inkscape:collect="always"
       xlink:href="#linearGradient3925"
       id="linearGradient4021"
       gradientUnits="userSpaceOnUse"
       x1="0"
       y1="1017.3622"
       x2="70.000023"
       y2="1017.3622" />
  </defs>
  <sodipodi:namedview
     id="base"
     pagecolor="#ffffff"
     bordercolor="#666666"
     borderopacity="1.0"
     inkscape:pageopacity="0.0"
     inkscape:pageshadow="2"
     inkscape:zoom="1"
     inkscape:cx="250"
     inkscape:cy="249.99999"
     inkscape:document-units="px"
     inkscape:current-layer="layer1"
     showgrid="false"
     inkscape:window-width="1280"
     inkscape:window-height="725"
     inkscape:window-x="0"
     inkscape:window-y="24"
     inkscape:window-maximized="1" />
  <metadata
     id="metadata7">
    <rdf:RDF>
      <cc:Work
         rdf:about="">
        <dc:format>image/svg+xml</dc:format>
        <dc:type
           rdf:resource="http://purl.org/dc/dcmitype/StillImage" />
        <dc:title />
      </cc:Work>
    </rdf:RDF>
  </metadata>
  <g
     inkscape:label="Layer 1"
     inkscape:groupmode="layer"
     id="layer1"
     transform="translate(0,-552.36218)">
    <g
       id="g3961"
       inkscape:export-filename="/home/william/src/attente/andy.png"
       inkscape:export-xdpi="90"
       inkscape:export-ydpi="90">
      <rect
         y="552.36218"
         x="0"
         height="500"
         width="500"
         id="rect2816"
         style="fill:url(#linearGradient4005);fill-opacity:1;fill-rule:evenodd;stroke:none" />
      <path
         sodipodi:nodetypes="cccccc"
         id="rect3596"
         d="m 0,952.36218 80,0 c 11.08,0 20,8.92 20,20 l 0,80.00002 -100,0 0,-100.00002 z"
         style="fill:url(#linearGradient4007);fill-opacity:1;stroke:none" />
      <path
         style="fill:url(#linearGradient4009);fill-opacity:1;stroke:none"
         d="m 399.99999,1052.3622 0,-80.00001 c 0,-11.08 8.92,-20 20,-20 l 80.00002,0 0,100.00001 -100.00002,0 z"
         id="path3599"
         sodipodi:nodetypes="cccccc" />
      <path
         style="fill:url(#linearGradient4011);fill-opacity:1;stroke:none"
         d="m 100.00001,552.36219 0,80 c 0,11.08 -8.92,20 -20,20 l -80.00002,0 0,-100 100.00002,0 z"
         id="path3601"
         sodipodi:nodetypes="cccccc" />
      <path
         sodipodi:nodetypes="cccccc"
         id="path3603"
         d="m 500,652.3622 -80,0 c -11.08,0 -20,-8.92 -20,-20 l 0,-80.00002 100,0 0,100.00002 z"
         style="fill:url(#linearGradient4013);fill-opacity:1;stroke:none" />
      <rect
         y="657.36218"
         x="86"
         height="290"
         width="4"
         id="rect3605"
         style="fill:#ffffff;fill-opacity:1;stroke:none" />
      <rect
         style="fill:#ffffff;fill-opacity:1;stroke:none"
         id="rect3607"
         width="4"
         height="290"
         x="66"
         y="657.36218" />
      <rect
         style="fill:#ffffff;fill-opacity:1;stroke:none"
         id="rect3609"
         width="4"
         height="290"
         x="430"
         y="657.36218" />
      <rect
         y="657.36218"
         x="410"
         height="290"
         width="4"
         id="rect3611"
         style="fill:#ffffff;fill-opacity:1;stroke:none" />
      <rect
         transform="matrix(0,1,-1,0,0,0)"
         style="fill:#ffffff;fill-opacity:1;stroke:none"
         id="rect3613"
         width="4"
         height="290"
         x="638.36218"
         y="-395" />
      <rect
         transform="matrix(0,1,-1,0,0,0)"
         y="-395"
         x="618.36218"
         height="290"
         width="4"
         id="rect3615"
         style="fill:#ffffff;fill-opacity:1;stroke:none" />
      <rect
         transform="matrix(0,1,-1,0,0,0)"
         y="-395"
         x="982.36218"
         height="290"
         width="4"
         id="rect3617"
         style="fill:#ffffff;fill-opacity:1;stroke:none" />
      <rect
         transform="matrix(0,1,-1,0,0,0)"
         style="fill:#ffffff;fill-opacity:1;stroke:none"
         id="rect3619"
         width="4"
         height="290"
         x="962.36218"
         y="-395" />
      <rect
         y="552.36218"
         x="248"
         height="60"
         width="4"
         id="rect3644"
         style="fill:#ffb700;fill-opacity:1;stroke:none" />
      <rect
         style="fill:#ffb700;fill-opacity:1;stroke:none"
         id="rect3646"
         width="4"
         height="60"
         x="248"
         y="992.36218" />
      <rect
         transform="matrix(0,1,-1,0,0,0)"
         y="-500"
         x="800.36218"
         height="60"
         width="4"
         id="rect3648"
         style="fill:#ffb700;fill-opacity:1;stroke:none" />
      <rect
         style="fill:#ffb700;fill-opacity:1;stroke:none"
         id="rect3650"
         width="4"
         height="60"
         x="800.36218"
         y="-60"
         transform="matrix(0,1,-1,0,0,0)" />
      <g
         id="g3794">
        <path
           style="fill:#ffffff;fill-opacity:1;fill-rule:evenodd;stroke:none"
           d="m 285.83939,1023.9068 5.81125,0"
           id="path3726" />
        <path
           sodipodi:nodetypes="cccccccccc"
           d="m 273.85055,1017.2559 -10e-6,10 -7.62603,-15 7.62603,-15.00002 0,10.00002 c 5.78111,0 10.81125,5.4769 10.81125,15 l 0,20 -5.81125,0 0,-20 c -0.21811,-3.3066 -2.23857,-5 -4.99999,-5 z"
           style="fill:#ffffff;fill-opacity:1;fill-rule:evenodd;stroke:none"
           id="path3746" />
        <path
           sodipodi:nodetypes="cccccccc"
           d="m 331.90316,1017.2559 -4.5945,0 0,25 -5.811,0 0,-25 -4.5945,0 7.50003,-20.00002 7.49997,20.00002 z"
           style="fill:#ffffff;fill-opacity:1;fill-rule:evenodd;stroke:none"
           id="path3748" />
        <path
           id="path3750"
           style="fill:#ffffff;fill-opacity:1;fill-rule:evenodd;stroke:none"
           d="m 374.95576,1017.2559 10e-6,10 7.62603,-15 -7.62603,-14.99982 0,9.99982 c -5.78111,0 -10.81125,5.4769 -10.81125,15 l 0,20 5.81125,0 0,-20 c 0.21811,-3.3066 2.23857,-5 4.99999,-5 z"
           sodipodi:nodetypes="cccccccccc" />
      </g>
      <g
         id="g3752"
         transform="matrix(0,-1,1,0,-556.17077,1052.4674)">
        <path
           sodipodi:nodetypes="cccccccccc"
           d="m 275.97187,1019.0237 -1e-5,10 -7.62603,-15 7.62603,-15.00005 0,10.00005 c 5.78111,0 10.81125,5.4769 10.81125,15 l 0,20 -5.81125,0 0,-20 c -0.21811,-3.3066 -2.23857,-5 -4.99999,-5 z"
           style="fill:#ffffff;fill-opacity:1;fill-rule:evenodd;stroke:none"
           id="path3754" />
        <path
           sodipodi:nodetypes="cccccccc"
           d="m 334.02448,1019.0237 -4.5945,0 0,25 -5.811,0 0,-25 -4.5945,0 7.50003,-20.00005 7.49997,20.00005 z"
           style="fill:#ffffff;fill-opacity:1;fill-rule:evenodd;stroke:none"
           id="path3756" />
        <path
           id="path3758"
           style="fill:#ffffff;fill-opacity:1;fill-rule:evenodd;stroke:none"
           d="m 377.07708,1019.0237 10e-6,10 7.62603,-15 -7.62603,-14.99985 0,9.99985 c -5.78111,0 -10.81125,5.4769 -10.81125,15 l 0,20 5.81125,0 0,-20 c 0.21811,-3.3066 2.23857,-5 4.99999,-5 z"
           sodipodi:nodetypes="cccccccccc" />
      </g>
      <g
         id="g3760"
         transform="matrix(-1,0,0,-1,500.87738,1606.4666)">
        <path
           sodipodi:nodetypes="cccccccccc"
           d="m 275.97187,1019.0237 -1e-5,10 -7.62603,-15 7.62603,-15.00005 0,10.00005 c 5.78111,0 10.81125,5.4769 10.81125,15 l 0,20 -5.81125,0 0,-20 c -0.21811,-3.3066 -2.23857,-5 -4.99999,-5 z"
           style="fill:#ffffff;fill-opacity:1;fill-rule:evenodd;stroke:none"
           id="path3762" />
        <path
           sodipodi:nodetypes="cccccccc"
           d="m 334.02448,1019.0237 -4.5945,0 0,25 -5.811,0 0,-25 -4.5945,0 7.50003,-20.00005 7.49997,20.00005 z"
           style="fill:#ffffff;fill-opacity:1;fill-rule:evenodd;stroke:none"
           id="path3764" />
        <path
           id="path3766"
           style="fill:#ffffff;fill-opacity:1;fill-rule:evenodd;stroke:none"
           d="m 377.07708,1019.0237 10e-6,10 7.62603,-15 -7.62603,-14.99985 0,9.99985 c -5.78111,0 -10.81125,5.4769 -10.81125,15 l 0,20 5.81125,0 0,-20 c 0.21811,-3.3066 2.23857,-5 4.99999,-5 z"
           sodipodi:nodetypes="cccccccccc" />
      </g>
      <g
         transform="matrix(0,1,-1,0,1055.8766,552.41845)"
         id="g3739">
        <path
           id="path3683"
           style="fill:#ffffff;fill-opacity:1;fill-rule:evenodd;stroke:none"
           d="m 275.97187,1019.0237 -1e-5,10 -7.62603,-15 7.62603,-15.00005 0,10.00005 c 5.78111,0 10.81125,5.4769 10.81125,15 l 0,20 -5.81125,0 0,-20 c -0.21811,-3.3066 -2.23857,-5 -4.99999,-5 z"
           sodipodi:nodetypes="cccccccccc" />
        <path
           id="path3685"
           style="fill:#ffffff;fill-opacity:1;fill-rule:evenodd;stroke:none"
           d="m 334.02448,1019.0237 -4.5945,0 0,25 -5.811,0 0,-25 -4.5945,0 7.50003,-20.00005 7.49997,20.00005 z"
           sodipodi:nodetypes="cccccccc" />
        <path
           sodipodi:nodetypes="cccccccccc"
           d="m 377.07708,1019.0237 10e-6,10 7.62603,-15 -7.62603,-14.99985 0,9.99985 c -5.78111,0 -10.81125,5.4769 -10.81125,15 l 0,20 5.81125,0 0,-20 c 0.21811,-3.3066 2.23857,-5 4.99999,-5 z"
           style="fill:#ffffff;fill-opacity:1;fill-rule:evenodd;stroke:none"
           id="path3737" />
      </g>
      <path
         sodipodi:nodetypes="cccccccc"
         d="m 117.40316,1022.7559 34.3056,0 0,-25 43.3888,0 0,25 34.3056,0 -56.00022,20 -55.99978,-20 z"
         style="fill:#ffffff;fill-opacity:1;fill-rule:evenodd;stroke:none"
         id="path3792" />
      <path
         id="path3800"
         style="fill:#ffffff;fill-opacity:1;fill-rule:evenodd;stroke:none"
         d="m 469.90316,932.2559 0,-34.3056 -25,0 0,-43.3888 25,0 0,-34.3056 20,56.00022 -20,55.99978 z"
         sodipodi:nodetypes="cccccccc" />
      <path
         id="path3802"
         style="fill:#ffffff;fill-opacity:1;fill-rule:evenodd;stroke:none"
         d="m 380.90316,580.2559 -34.3056,0 0,25 -43.3888,0 0,-25 -34.3056,0 56.00022,-20 55.99978,20 z"
         sodipodi:nodetypes="cccccccc" />
      <path
         sodipodi:nodetypes="cccccccc"
         d="m 28.40316,669.7559 0,34.3056 25,0 0,43.3888 -25,0 0,34.3056 -20,-56.00022 20,-55.99978 z"
         style="fill:#ffffff;fill-opacity:1;fill-rule:evenodd;stroke:none"
         id="path3804" />
      <path
         sodipodi:nodetypes="cccccc"
         id="path3913"
         d="m 69.99999,552.36218 0,56 c 0,7.756 -6.243999,14 -13.999997,14 l -56.000003,0 0,-70 70,0 z"
         style="fill:url(#linearGradient4015);fill-opacity:1;stroke:none" />
      <path
         sodipodi:nodetypes="cccccc"
         id="path3919"
         d="m 500,622.36218 -56,0 c -7.756,0 -14,-6.244 -14,-14 l 0,-56 70,0 0,70 z"
         style="fill:url(#linearGradient4017);fill-opacity:1;stroke:none" />
      <path
         sodipodi:nodetypes="cccccc"
         id="path3921"
         d="m 430,1052.3622 0,-56.00004 c 0,-7.756 6.244,-14 14,-14 l 56,0 0,70.00004 -70,0 z"
         style="fill:url(#linearGradient4019);fill-opacity:1;stroke:none" />
      <path
         sodipodi:nodetypes="cccccc"
         id="path3923"
         d="m 0,982.36217 56.00002,0 c 7.756,0 14,6.244 14,14 l 0,56.00003 -70.00002,0 0,-70.00003 z"
         style="fill:url(#linearGradient4021);fill-opacity:1;stroke:none" />
    </g>
  </g>
</svg>
